<svg xmlns="http://www.w3.org/2000/svg" width="167" height="24" viewBox="0 0 167 24" fill="none"><path d="M4.83654 6.43278C4.8551 6.30701 4.86041 6.17812 4.86041 6.04686C4.86041 4.67209 3.80419 3.55762 2.50129 3.55762C1.32019 3.55762 0.341814 4.47344 0.169198 5.6688C-0.127572 7.45713 -0.0301179 9.28878 0.454825 11.0356C0.941163 12.7875 1.80541 14.4116 2.98679 15.7936C4.16816 17.1756 5.63798 18.282 7.29286 19.035C8.94774 19.788 10.7475 20.1693 12.5655 20.152C14.3836 20.1348 16.1758 19.7194 17.8161 18.9352C19.4564 18.1509 20.905 17.0168 22.0599 15.6127C23.2148 14.2085 24.0481 12.5683 24.5012 10.8075C24.763 9.78982 24.8941 8.74608 24.8937 7.7013V5.92832C24.8937 4.61902 23.8329 3.55762 22.5236 3.55762H17.7822C16.4729 3.55762 15.4115 4.61902 15.4115 5.92832C15.4115 7.23763 16.4729 8.29903 17.7822 8.29903H20.1438C20.1085 8.7372 20.0267 9.19985 19.9165 9.628C19.6358 10.7191 19.1195 11.7354 18.4038 12.6055C17.6881 13.4756 16.7905 14.1783 15.7741 14.6643C14.7577 15.1502 13.6472 15.4076 12.5206 15.4183C11.3941 15.429 10.2789 15.1927 9.25343 14.7261C8.22799 14.2595 7.31722 13.574 6.58518 12.7176C5.85314 11.8612 5.31761 10.8549 5.01625 9.76934C4.7149 8.68379 4.65071 7.54539 4.83654 6.43422V6.43278Z" fill="#6400E0"></path><path d="M15.4115 5.92832C15.4115 4.61902 16.4729 3.55762 17.7822 3.55762H22.5236C23.8329 3.55762 24.8943 4.61902 24.8943 5.92832C24.8943 7.23763 23.8329 8.29903 22.5236 8.29903H17.7822C16.4729 8.29903 15.4115 7.23763 15.4115 5.92832Z" fill="#FF00C7"></path><path d="M36.6366 19.5746C36.6879 19.6091 36.8249 19.6694 37.0474 19.7555C37.2699 19.8416 37.5523 19.9277 37.8947 20.0139C38.2541 20.1172 38.665 20.2034 39.1271 20.2723C39.6064 20.3584 40.1199 20.4015 40.6676 20.4015C41.2154 20.4015 41.7203 20.3412 42.1825 20.2206C42.6618 20.1 43.064 19.8933 43.3892 19.6005C43.7316 19.3248 43.9969 18.9631 44.1852 18.5152C44.3735 18.0846 44.4676 17.542 44.4676 16.8874V16.6032C44.382 16.6893 44.2365 16.8099 44.0311 16.9649C43.8428 17.1199 43.5861 17.275 43.2609 17.43C42.9528 17.585 42.5847 17.7228 42.1568 17.8434C41.7289 17.964 41.2496 18.0243 40.719 18.0243C39.7947 18.0243 38.9388 17.8865 38.1514 17.6109C37.3812 17.318 36.7136 16.896 36.1487 16.3448C35.5839 15.7935 35.1474 15.1217 34.8393 14.3293C34.5312 13.5197 34.3771 12.6068 34.3771 11.5904C34.3771 10.5741 34.5569 9.65253 34.9163 8.82569C35.2758 7.98162 35.7722 7.25814 36.4055 6.65523C37.0388 6.05233 37.792 5.58723 38.665 5.25994C39.555 4.91542 40.5307 4.74316 41.592 4.74316C42.773 4.74316 43.86 4.9671 44.8528 5.41497C45.8627 5.86284 46.6928 6.51743 47.3433 7.37872C47.7541 7.92995 48.0622 8.57591 48.2676 9.31663C48.4901 10.0573 48.6014 10.9961 48.6014 12.1331V15.983C48.6014 17.3266 48.4131 18.4808 48.0365 19.4454C47.6599 20.4273 47.1379 21.2283 46.4703 21.8484C45.8028 22.4858 45.0068 22.9509 44.0825 23.2437C43.1753 23.5538 42.1825 23.7088 41.1041 23.7088C40.351 23.7088 39.6577 23.6571 39.0244 23.5538C38.3911 23.4677 37.8262 23.3557 37.3298 23.2179C36.8505 23.0973 36.4483 22.9681 36.1231 22.8303C35.815 22.7097 35.6096 22.615 35.5069 22.5461L36.6366 19.5746ZM38.6136 11.5904C38.6136 12.5723 38.8875 13.3044 39.4352 13.7867C39.983 14.2691 40.6848 14.5102 41.5406 14.5102C42.3793 14.5102 43.0726 14.2432 43.6203 13.7092C44.1852 13.1752 44.4676 12.469 44.4676 11.5904C44.4676 10.7119 44.1852 9.99705 43.6203 9.44582C43.0726 8.87737 42.3793 8.59314 41.5406 8.59314C41.1127 8.59314 40.719 8.67066 40.3595 8.82569C40.0001 8.98072 39.692 9.19604 39.4352 9.47166C39.1785 9.74727 38.9731 10.066 38.819 10.4277C38.6821 10.7894 38.6136 11.177 38.6136 11.5904Z" fill="#111827"></path><path d="M69.9379 11.8553C69.9379 10.833 70.1229 9.88998 70.4928 9.0263C70.8627 8.16262 71.3671 7.41352 72.006 6.77898C72.6617 6.14444 73.4183 5.65091 74.2758 5.29839C75.1333 4.92824 76.0581 4.74316 77.0501 4.74316C78.0252 4.74316 78.9416 4.92824 79.7991 5.29839C80.6734 5.65091 81.43 6.14444 82.0689 6.77898C82.7246 7.41352 83.2374 8.16262 83.6073 9.0263C83.9772 9.88998 84.1622 10.833 84.1622 11.8553C84.1622 12.8776 83.9772 13.8206 83.6073 14.6843C83.2374 15.5479 82.7246 16.2971 82.0689 16.9316C81.43 17.5661 80.6734 18.0685 79.7991 18.4386C78.9416 18.7911 78.0252 18.9674 77.0501 18.9674C76.0581 18.9674 75.1333 18.7911 74.2758 18.4386C73.4183 18.0685 72.6617 17.5661 72.006 16.9316C71.3671 16.2971 70.8627 15.5479 70.4928 14.6843C70.1229 13.8206 69.9379 12.8776 69.9379 11.8553ZM77.0501 15.1602C77.4704 15.1602 77.8571 15.0809 78.2102 14.9222C78.5801 14.746 78.8995 14.5168 79.1686 14.2348C79.4376 13.9352 79.6393 13.5826 79.7738 13.1772C79.9252 12.7718 80.0008 12.3312 80.0008 11.8553C80.0008 11.3794 79.9252 10.9387 79.7738 10.5333C79.6393 10.1279 79.4376 9.78422 79.1686 9.5022C78.8995 9.20256 78.5801 8.97342 78.2102 8.81479C77.8571 8.63853 77.4704 8.5504 77.0501 8.5504C76.6129 8.5504 76.2178 8.63853 75.8647 8.81479C75.5116 8.97342 75.2006 9.20256 74.9315 9.5022C74.6625 9.78422 74.4524 10.1279 74.301 10.5333C74.1665 10.9387 74.0993 11.3794 74.0993 11.8553C74.0993 12.3312 74.1665 12.7718 74.301 13.1772C74.4524 13.5826 74.6625 13.9352 74.9315 14.2348C75.2006 14.5168 75.5116 14.746 75.8647 14.9222C76.2178 15.0809 76.6129 15.1602 77.0501 15.1602Z" fill="#111827"></path><path d="M52.1575 11.8553C52.1575 10.833 52.3425 9.88998 52.7124 9.0263C53.0823 8.16262 53.5867 7.41352 54.2256 6.77898C54.8813 6.14444 55.6379 5.65091 56.4954 5.29839C57.3529 4.92824 58.2776 4.74316 59.2696 4.74316C60.2448 4.74316 61.1612 4.92824 62.0186 5.29839C62.8929 5.65091 63.6496 6.14444 64.2885 6.77898C64.9442 7.41352 65.457 8.16262 65.8269 9.0263C66.1968 9.88998 66.3817 10.833 66.3817 11.8553C66.3817 12.8776 66.1968 13.8206 65.8269 14.6843C65.457 15.5479 64.9442 16.2971 64.2885 16.9316C63.6496 17.5661 62.8929 18.0685 62.0186 18.4386C61.1612 18.7911 60.2448 18.9674 59.2696 18.9674C58.2776 18.9674 57.3529 18.7911 56.4954 18.4386C55.6379 18.0685 54.8813 17.5661 54.2256 16.9316C53.5867 16.2971 53.0823 15.5479 52.7124 14.6843C52.3425 13.8206 52.1575 12.8776 52.1575 11.8553ZM59.2696 15.1602C59.69 15.1602 60.0767 15.0809 60.4298 14.9222C60.7997 14.746 61.1191 14.5168 61.3881 14.2348C61.6572 13.9352 61.8589 13.5826 61.9934 13.1772C62.1447 12.7718 62.2204 12.3312 62.2204 11.8553C62.2204 11.3794 62.1447 10.9387 61.9934 10.5333C61.8589 10.1279 61.6572 9.78422 61.3881 9.5022C61.1191 9.20256 60.7997 8.97342 60.4298 8.81479C60.0767 8.63853 59.69 8.5504 59.2696 8.5504C58.8325 8.5504 58.4374 8.63853 58.0843 8.81479C57.7312 8.97342 57.4202 9.20256 57.1511 9.5022C56.8821 9.78422 56.672 10.1279 56.5206 10.5333C56.3861 10.9387 56.3189 11.3794 56.3189 11.8553C56.3189 12.3312 56.3861 12.7718 56.5206 13.1772C56.672 13.5826 56.8821 13.9352 57.1511 14.2348C57.4202 14.5168 57.7312 14.746 58.0843 14.9222C58.4374 15.0809 58.8325 15.1602 59.2696 15.1602Z" fill="#111827"></path><path fill-rule="evenodd" clip-rule="evenodd" d="M101.608 14.3967C101.831 13.6054 101.942 12.671 101.942 11.5935V0.380761C101.839 0.347089 101.6 0.279746 101.223 0.178731C100.864 0.0608792 100.453 0.00195312 99.9907 0.00195312C99.3403 0.00195312 98.8182 0.136641 98.4245 0.406016C98.0308 0.67539 97.497 1.29507 97.497 1.7261V6.70112C97.4351 6.64019 97.3802 6.58205 97.3268 6.52557C97.1149 6.30113 96.9278 6.10297 96.4218 5.86085C95.8056 5.54097 95.0182 5.38103 94.0597 5.38103C93.1867 5.38103 92.3651 5.54939 91.5948 5.88611C90.8246 6.20599 90.1485 6.66056 89.5665 7.24982C89.0016 7.83907 88.548 8.5546 88.2057 9.39639C87.8804 10.2214 87.7178 11.1473 87.7178 12.1743C87.7178 13.1845 87.8976 14.1105 88.257 14.9522C88.6165 15.794 89.1129 16.5096 89.7462 17.0988C90.3795 17.6881 91.1241 18.1511 91.98 18.4878C92.8529 18.8077 93.7944 18.9676 94.8043 18.9676C96.0367 18.9676 97.1579 18.7487 98.1678 18.311C99.1777 17.8733 100.008 17.2335 100.658 16.3917C101.069 15.853 101.386 15.188 101.608 14.3967ZM97.0124 14.4219C96.4647 14.9607 95.7629 15.23 94.907 15.23C94.0512 15.23 93.3408 14.9522 92.776 14.3967C92.2282 13.8411 91.9543 13.1087 91.9543 12.1996C91.9543 11.2904 92.2282 10.5497 92.776 9.97723C93.3408 9.38798 94.0512 9.09335 94.907 9.09335C95.3349 9.09335 95.7286 9.17753 96.0881 9.34589C96.4476 9.49741 96.7557 9.71628 97.0124 10.0025C97.2863 10.2719 97.4917 10.6002 97.6286 10.9874C97.7827 11.3578 97.8597 11.7618 97.8597 12.1996C97.8597 13.1424 97.5773 13.8832 97.0124 14.4219Z" fill="#111827"></path><path d="M105.498 1.87495C105.498 1.18907 105.711 0.705427 106.137 0.424037C106.563 0.142647 107.128 0.00195312 107.832 0.00195312C108.332 0.00195312 108.786 0.0635068 109.193 0.186614C109.601 0.292136 109.86 0.362484 109.971 0.397657V5.14435H113.166C113.999 5.14435 114.592 5.30263 114.944 5.61919C115.296 5.93576 115.472 6.4106 115.472 7.04373C115.472 7.50099 115.398 7.93186 115.25 8.33636C115.101 8.72327 114.99 8.97828 114.916 9.10139H109.971V13.2431C109.971 13.6476 110.036 13.9729 110.166 14.2192C110.295 14.4478 110.453 14.6325 110.638 14.7731C110.842 14.9138 111.064 15.0106 111.305 15.0633C111.564 15.0985 111.823 15.1161 112.082 15.1161C112.601 15.1161 113.073 15.0457 113.499 14.9051C113.925 14.7468 114.231 14.6149 114.416 14.5093L116.166 17.4112C116 17.5519 115.759 17.7102 115.444 17.886C115.129 18.0619 114.75 18.229 114.305 18.3872C113.86 18.5455 113.36 18.6774 112.805 18.783C112.249 18.9061 111.666 18.9676 111.055 18.9676C109.314 18.9676 107.952 18.5367 106.971 17.675C105.989 16.7956 105.498 15.6261 105.498 14.1664V1.87495Z" fill="#111827"></path><path d="M119.723 7.78407C119.723 7.14541 120.164 6.69507 120.57 6.43306C120.976 6.17104 121.515 6.04003 122.186 6.04003C122.663 6.04003 123.096 6.09735 123.484 6.21198C123.873 6.32661 124.464 6.68714 124.464 6.68714V18.991H119.723V7.78407Z" fill="#111827"></path><path d="M120.385 0.714089C119.943 1.17322 119.723 1.7383 119.723 2.40934C119.723 3.08038 119.943 3.64547 120.385 4.1046C120.844 4.54607 121.409 4.76681 122.08 4.76681C122.751 4.76681 123.316 4.54607 123.775 4.1046C124.235 3.64547 124.464 3.08038 124.464 2.40934C124.464 1.7383 124.235 1.17322 123.775 0.714089C123.316 0.254957 122.751 0.0253906 122.08 0.0253906C121.409 0.0253906 120.844 0.254957 120.385 0.714089Z" fill="#111827"></path><path d="M128.463 7.78346C128.168 8.43495 128.02 9.20408 128.02 10.0908V18.9674H132.658V10.8596C132.658 9.91689 133.489 9.18824 134.514 9.18824C135.538 9.18824 136.369 9.91689 136.369 10.8596V18.9674H141.007V10.8596C141.007 9.91689 141.838 9.18824 142.863 9.18824C143.887 9.18824 144.718 9.91689 144.718 10.8596V18.9674H149.356V10.0908C149.356 9.20408 149.2 8.43495 148.887 7.78346C148.592 7.11387 148.175 6.55287 147.637 6.10044C147.116 5.64802 146.491 5.31322 145.761 5.09606C145.049 4.86079 144.276 4.74316 143.443 4.74316C142.401 4.74316 141.48 4.92413 140.681 5.28607C139.882 5.64801 139.231 6.15473 138.727 6.80622C138.224 6.15473 137.564 5.64801 136.747 5.28607C135.931 4.92413 135.002 4.74316 133.96 4.74316C133.109 4.74316 132.319 4.86079 131.589 5.09606C130.877 5.31322 130.252 5.64802 129.713 6.10044C129.192 6.55287 128.775 7.11387 128.463 7.78346Z" fill="#111827"></path><path d="M157.362 13.6267C157.397 13.8382 157.483 14.0497 157.621 14.2612C157.776 14.4551 157.983 14.6402 158.242 14.8165C158.518 14.9927 158.863 15.1337 159.277 15.2395C159.691 15.3452 160.191 15.3981 160.777 15.3981C161.226 15.3981 161.648 15.3629 162.045 15.2924C162.442 15.2042 162.787 15.1161 163.08 15.028C163.373 14.9399 163.615 14.8517 163.804 14.7636C163.994 14.6755 164.106 14.6138 164.141 14.5785L165.589 17.5397C165.451 17.6278 165.219 17.7512 164.891 17.9098C164.58 18.0685 164.184 18.2271 163.701 18.3857C163.218 18.5444 162.649 18.6766 161.993 18.7823C161.355 18.9057 160.648 18.9674 159.872 18.9674C158.906 18.9674 158.001 18.8088 157.156 18.4915C156.31 18.1742 155.569 17.716 154.931 17.1167C154.31 16.4998 153.818 15.7507 153.456 14.8693C153.094 13.988 152.913 12.9834 152.913 11.8553C152.913 10.7977 153.094 9.82829 153.456 8.94698C153.818 8.06568 154.318 7.31657 154.957 6.69966C155.595 6.08275 156.345 5.60684 157.207 5.27195C158.07 4.91942 159.001 4.74316 160.001 4.74316C160.933 4.74316 161.769 4.87536 162.511 5.13975C163.252 5.38652 163.873 5.73023 164.373 6.17088C164.891 6.61153 165.279 7.11387 165.538 7.67791C165.814 8.24194 165.952 8.8236 165.952 9.42289C165.952 10.0751 165.839 10.6655 165.615 11.1943C165.391 11.7055 164.986 12.1461 164.399 12.5163C163.83 12.8688 163.045 13.142 162.045 13.3359C161.062 13.5298 159.803 13.6267 158.268 13.6267H157.362ZM157.156 10.877C158.311 10.877 159.208 10.833 159.846 10.7448C160.484 10.6567 160.959 10.5421 161.269 10.4011C161.579 10.2601 161.769 10.1015 161.838 9.92523C161.907 9.74897 161.942 9.57271 161.942 9.39645C161.942 9.0263 161.778 8.70903 161.45 8.44464C161.122 8.16262 160.631 8.02162 159.975 8.02162C159.51 8.02162 159.104 8.10975 158.76 8.28601C158.415 8.44464 158.121 8.65615 157.88 8.92055C157.656 9.18494 157.483 9.49339 157.362 9.84591C157.242 10.1808 157.173 10.5245 157.156 10.877Z" fill="#111827"></path></svg>